<?xml version="1.0" encoding="utf-8"?>
<!-- Generator: Adobe Illustrator 16.0.0, SVG Export Plug-In . SVG Version: 6.00 Build 0)  -->
<!DOCTYPE svg PUBLIC "-//W3C//DTD SVG 1.1//EN" "http://www.w3.org/Graphics/SVG/1.1/DTD/svg11.dtd">
<svg version="1.1" id="Layer_1" xmlns="http://www.w3.org/2000/svg" xmlns:xlink="http://www.w3.org/1999/xlink" x="0px" y="0px"
	 width="258.013px" height="258.013px" viewBox="0 0 258.013 258.013" enable-background="new 0 0 258.013 258.013"
	 xml:space="preserve">
<g>
	<g>
		<path fill="#FFFFFF" d="M129.707,216.254c-2.209,0-4-1.791-4-4V45.759c0-2.209,1.791-4,4-4s4,1.791,4,4v166.495
			C133.707,214.463,131.916,216.254,129.707,216.254z"/>
	</g>
	<path fill="#FFFFFF" d="M129.006,0C57.872,0,0,57.872,0,129.006c0,71.135,57.872,129.007,129.006,129.007
		c71.135,0,129.007-57.872,129.007-129.007C258.013,57.872,200.141,0,129.006,0z M129.006,250.013
		c-37.694,0-71.415-17.328-93.624-44.433c2.466-1.866,4.017-4.795,5.271-7.182c1.156-2.198,2.466-4.69,3.612-4.69
		c1.145,0,2.454,2.491,3.609,4.689c2.009,3.823,4.761,9.059,10.842,9.059c6.083,0,8.836-5.235,10.847-9.058
		c1.156-2.199,2.467-4.69,3.614-4.69s2.458,2.492,3.614,4.69c2.011,3.823,4.764,9.058,10.847,9.058c2.257,0,4.086-1.829,4.086-4.085
		s-1.829-4.086-4.086-4.086c-1.147,0-2.458-2.492-3.614-4.69c-2.011-3.823-4.764-9.058-10.847-9.058s-8.836,5.235-10.847,9.058
		c-1.156,2.199-2.467,4.69-3.614,4.69c-1.145,0-2.454-2.491-3.609-4.689c-2.009-3.823-4.761-9.059-10.842-9.059
		c-6.082,0-8.835,5.236-10.845,9.059c-0.96,1.825-2.025,3.848-3.016,4.483c-7.779-10.915-13.788-23.172-17.617-36.348
		c0.864-1.513,1.759-2.768,2.571-2.768c1.144,0,2.453,2.491,3.607,4.689c2.01,3.823,4.762,9.06,10.843,9.06
		c6.082,0,8.834-5.235,10.844-9.059c1.156-2.198,2.466-4.69,3.612-4.69c1.145,0,2.454,2.491,3.609,4.689
		c2.009,3.823,4.761,9.059,10.842,9.059c6.083,0,8.836-5.235,10.847-9.058c1.156-2.199,2.467-4.69,3.614-4.69
		s2.458,2.492,3.614,4.69c2.011,3.823,4.764,9.058,10.847,9.058c2.257,0,4.086-1.829,4.086-4.085s-1.829-4.086-4.086-4.086
		c-1.147,0-2.458-2.492-3.614-4.69c-2.011-3.823-4.764-9.058-10.847-9.058s-8.836,5.235-10.847,9.058
		c-1.156,2.199-2.467,4.69-3.614,4.69c-1.145,0-2.454-2.491-3.609-4.689c-2.009-3.823-4.761-9.059-10.842-9.059
		c-6.082,0-8.835,5.236-10.845,9.059c-1.156,2.198-2.466,4.689-3.611,4.689c-1.145,0-2.454-2.491-3.609-4.689
		c-2.009-3.823-4.76-9.059-10.841-9.059c-1.96,0-3.573,0.545-4.928,1.411c-1.114-5.47-1.852-11.075-2.198-16.784
		c1.494-1.706,2.59-3.751,3.515-5.511c1.156-2.198,2.466-4.689,3.611-4.689c1.144,0,2.453,2.491,3.607,4.689
		c2.01,3.823,4.762,9.06,10.843,9.06c6.082,0,8.834-5.235,10.844-9.059c1.156-2.198,2.466-4.69,3.612-4.69
		c1.145,0,2.454,2.491,3.609,4.689c2.009,3.823,4.761,9.059,10.842,9.059c6.083,0,8.836-5.235,10.847-9.058
		c1.156-2.199,2.467-4.69,3.614-4.69s2.458,2.492,3.614,4.69c2.011,3.823,4.764,9.058,10.847,9.058c2.257,0,4.086-1.829,4.086-4.085
		s-1.829-4.086-4.086-4.086c-1.147,0-2.458-2.492-3.614-4.69c-2.011-3.823-4.764-9.058-10.847-9.058s-8.836,5.235-10.847,9.058
		c-1.156,2.199-2.467,4.69-3.614,4.69c-1.145,0-2.454-2.491-3.609-4.689c-2.009-3.823-4.761-9.059-10.842-9.059
		c-6.082,0-8.835,5.236-10.845,9.059c-1.156,2.198-2.466,4.689-3.611,4.689c-1.145,0-2.454-2.491-3.609-4.689
		c-2.009-3.823-4.76-9.059-10.841-9.059c-3.14,0-5.388,1.399-7.108,3.275C12.229,58.166,64.865,8,129.006,8
		c66.724,0,121.007,54.283,121.007,121.006C250.013,195.729,195.729,250.013,129.006,250.013z"/>
	<path fill="#FFFFFF" d="M206.878,58.924h-36.944c-2.762,0-5,2.239-5,5v40.592c0,2.761,2.238,5,5,5h36.944c2.762,0,5-2.239,5-5
		V63.924C211.878,61.163,209.64,58.924,206.878,58.924z M205.403,98.918c0,2-1.621,3.621-3.621,3.621h-26.754
		c-2,0-3.621-1.621-3.621-3.621V69.522c0-2,1.621-3.621,3.621-3.621h26.754c2,0,3.621,1.621,3.621,3.621V98.918z"/>
	<path fill="#FFFFFF" d="M187.782,98.371c-1.933,0-3.697-0.196-5.295-0.588c-1.598-0.392-2.82-0.862-3.671-1.411l0.574-5.681
		c0.824,0.799,1.979,1.475,3.462,2.028c1.481,0.554,3.165,0.831,5.048,0.831c3.252,0,4.878-0.982,4.878-2.946
		c0-0.543-0.127-1.034-0.384-1.473c-0.256-0.439-0.531-0.801-0.824-1.085c-0.295-0.284-0.788-0.588-1.479-0.911
		c-0.691-0.323-1.231-0.556-1.621-0.698c-0.389-0.142-1.045-0.381-1.969-0.719c-0.789-0.267-1.337-0.466-1.643-0.601l-1.604-0.586
		c-0.726-0.283-1.257-0.533-1.594-0.751c-0.337-0.218-0.752-0.525-1.243-0.924c-0.493-0.398-0.855-0.802-1.09-1.214
		c-0.232-0.411-0.44-0.905-0.622-1.483c-0.181-0.578-0.271-1.2-0.271-1.868c0-2.14,0.799-4.044,2.396-5.715
		c1.598-1.671,4.059-2.506,7.382-2.506c1.746,0,3.433,0.224,5.062,0.672c1.628,0.448,2.848,0.935,3.655,1.462l-0.509,5.121
		c-2.997-1.623-5.668-2.435-8.014-2.435c-1.327,0-2.491,0.216-3.493,0.648c-1.003,0.431-1.503,1.155-1.503,2.17
		c0,0.964,0.461,1.708,1.385,2.228c0.925,0.521,2.323,1.06,4.198,1.618c0.95,0.354,1.675,0.623,2.174,0.809
		c0.499,0.186,1.193,0.444,2.083,0.775c0.889,0.33,1.578,0.698,2.069,1.101c0.489,0.404,1,0.897,1.528,1.482
		s0.916,1.273,1.162,2.067c0.244,0.793,0.368,1.67,0.368,2.632c0,0.728-0.066,1.41-0.195,2.046
		c-0.132,0.637-0.425,1.333-0.881,2.085c-0.456,0.753-1.056,1.396-1.798,1.929c-0.743,0.533-1.773,0.981-3.088,1.344
		C191.1,98.188,189.555,98.371,187.782,98.371z"/>
</g>
</svg>
